<svg width="32" height="32" viewBox="0 0 32 32" fill="none" xmlns="http://www.w3.org/2000/svg">
<path d="M26.5 7H5.5C4.11929 7 3 8.11929 3 9.5V22.5C3 23.8807 4.11929 25 5.5 25H26.5C27.8807 25 29 23.8807 29 22.5V9.5C29 8.11929 27.8807 7 26.5 7Z" stroke="white" stroke-width="2"/>
<path d="M29 11H3V14H29V11Z" fill="white"/>
<path d="M10.5 17H6.5C6.22386 17 6 17.2239 6 17.5V20.5C6 20.7761 6.22386 21 6.5 21H10.5C10.7761 21 11 20.7761 11 20.5V17.5C11 17.2239 10.7761 17 10.5 17Z" stroke="white" stroke-width="1.5"/>
<path d="M14 20H22" stroke="white" stroke-width="1.5" stroke-linecap="round"/>
</svg>
