<svg width="29" height="28" viewBox="0 0 29 28" fill="none" xmlns="http://www.w3.org/2000/svg">
<path d="M27.7542 11.4333C28.2197 10.8366 28.4804 10.1058 28.4977 9.34918C28.5149 8.59259 28.2877 7.85061 27.8499 7.23333L23.7304 1.4665C23.4067 1.01304 22.9794 0.643407 22.4841 0.388337C21.9888 0.133268 21.4397 0.000131993 20.8826 0L8.12158 0C7.56444 0.000131993 7.01537 0.133268 6.52005 0.388337C6.02472 0.643407 5.59745 1.01304 5.27375 1.4665L1.15425 7.23333C0.717262 7.85112 0.490932 8.59325 0.508794 9.34974C0.526656 10.1062 0.787759 10.8369 1.25341 11.4333L14.5021 28.126L27.7542 11.4333ZM8.96391 10.5L12.2306 21.504L3.49108 10.5H8.96391ZM25.5131 10.5L16.7794 21.504L20.0402 10.5H25.5131ZM17.6066 10.5L14.5021 20.9755L11.3976 10.5H17.6066ZM11.3824 8.16667L13.0484 2.33333H15.9557L17.6217 8.16667H11.3824ZM21.8322 2.82217L25.6496 8.16667H20.0496L18.3824 2.33333H20.8826C21.0684 2.33332 21.2515 2.37766 21.4166 2.46269C21.5818 2.54772 21.7243 2.67096 21.8322 2.82217ZM7.17191 2.82217C7.27985 2.67096 7.42234 2.54772 7.58752 2.46269C7.7527 2.37766 7.9358 2.33332 8.12158 2.33333H10.6217L8.95575 8.16667H3.35575L7.17191 2.82217Z" fill="white" fill-opacity="0.9"/>
</svg>
